<svg xmlns="http://www.w3.org/2000/svg" xmlns:xlink="http://www.w3.org/1999/xlink" viewBox="0 0 1356.23 630.15"><defs><style>.cls-1,.cls-10,.cls-11,.cls-12,.cls-13,.cls-14,.cls-15,.cls-16,.cls-17,.cls-18,.cls-19,.cls-2,.cls-20,.cls-21,.cls-22,.cls-3,.cls-4,.cls-5,.cls-6,.cls-7,.cls-8,.cls-9{fill:none;stroke-miterlimit:10;}.cls-1{stroke:url(#Degradado_sin_nombre_48);}.cls-2{stroke:url(#Degradado_sin_nombre_48-2);}.cls-3{stroke:url(#Degradado_sin_nombre_48-3);}.cls-4{stroke:url(#Degradado_sin_nombre_48-4);}.cls-5{stroke:url(#Degradado_sin_nombre_48-5);}.cls-6{stroke:url(#Degradado_sin_nombre_48-6);}.cls-7{stroke:url(#Degradado_sin_nombre_48-7);}.cls-8{stroke:url(#Degradado_sin_nombre_48-8);}.cls-9{stroke:url(#Degradado_sin_nombre_48-9);}.cls-10{stroke:url(#Degradado_sin_nombre_48-10);}.cls-11{stroke:url(#Degradado_sin_nombre_48-11);}.cls-12{stroke:url(#Degradado_sin_nombre_48-12);}.cls-13{stroke:url(#Degradado_sin_nombre_48-13);}.cls-14{stroke:url(#Degradado_sin_nombre_48-14);}.cls-15{stroke:url(#Degradado_sin_nombre_48-15);}.cls-16{stroke:url(#Degradado_sin_nombre_48-16);}.cls-17{stroke:url(#Degradado_sin_nombre_48-17);}.cls-18{stroke:url(#Degradado_sin_nombre_48-18);}.cls-19{stroke:url(#Degradado_sin_nombre_48-19);}.cls-20{stroke:url(#Degradado_sin_nombre_48-20);}.cls-21{stroke:url(#Degradado_sin_nombre_48-21);}.cls-22{stroke:url(#Degradado_sin_nombre_48-22);}</style><linearGradient id="Degradado_sin_nombre_48" x1="0.03" y1="325.28" x2="1356.23" y2="325.28" gradientUnits="userSpaceOnUse"><stop offset="0"/><stop offset="0.02" stop-color="#090702"/><stop offset="0.06" stop-color="#231a09"/><stop offset="0.11" stop-color="#4c3814"/><stop offset="0.16" stop-color="#856223"/><stop offset="0.2" stop-color="#b5852f"/><stop offset="0.54" stop-color="#3e1a44"/><stop offset="0.81" stop-color="#18223a"/><stop offset="1"/></linearGradient><linearGradient id="Degradado_sin_nombre_48-2" x1="0.04" y1="324.74" x2="1356.01" y2="324.74" xlink:href="#Degradado_sin_nombre_48"/><linearGradient id="Degradado_sin_nombre_48-3" x1="0.06" y1="324.2" x2="1355.79" y2="324.2" xlink:href="#Degradado_sin_nombre_48"/><linearGradient id="Degradado_sin_nombre_48-4" x1="0.09" y1="323.66" x2="1355.57" y2="323.66" xlink:href="#Degradado_sin_nombre_48"/><linearGradient id="Degradado_sin_nombre_48-5" x1="0.15" y1="323.11" x2="1355.35" y2="323.11" xlink:href="#Degradado_sin_nombre_48"/><linearGradient id="Degradado_sin_nombre_48-6" x1="0.28" y1="322.57" x2="1355.13" y2="322.57" xlink:href="#Degradado_sin_nombre_48"/><linearGradient id="Degradado_sin_nombre_48-7" x1="0.47" y1="322.03" x2="1354.91" y2="322.03" xlink:href="#Degradado_sin_nombre_48"/><linearGradient id="Degradado_sin_nombre_48-8" x1="0.22" y1="321.49" x2="1354.69" y2="321.49" xlink:href="#Degradado_sin_nombre_48"/><linearGradient id="Degradado_sin_nombre_48-9" x1="0.1" y1="320.94" x2="1354.47" y2="320.94" xlink:href="#Degradado_sin_nombre_48"/><linearGradient id="Degradado_sin_nombre_48-10" x1="0.05" y1="320.4" x2="1354.25" y2="320.4" xlink:href="#Degradado_sin_nombre_48"/><linearGradient id="Degradado_sin_nombre_48-11" x1="0.03" y1="319.86" x2="1354.03" y2="319.86" xlink:href="#Degradado_sin_nombre_48"/><linearGradient id="Degradado_sin_nombre_48-12" x1="0.02" y1="319.32" x2="1353.82" y2="319.32" xlink:href="#Degradado_sin_nombre_48"/><linearGradient id="Degradado_sin_nombre_48-13" x1="0.01" y1="318.77" x2="1353.6" y2="318.77" xlink:href="#Degradado_sin_nombre_48"/><linearGradient id="Degradado_sin_nombre_48-14" x1="0.01" y1="318.25" x2="1353.38" y2="318.25" xlink:href="#Degradado_sin_nombre_48"/><linearGradient id="Degradado_sin_nombre_48-15" x1="0.01" y1="317.75" x2="1353.19" y2="317.75" xlink:href="#Degradado_sin_nombre_48"/><linearGradient id="Degradado_sin_nombre_48-16" x1="0" y1="317.27" x2="1352.99" y2="317.27" xlink:href="#Degradado_sin_nombre_48"/><linearGradient id="Degradado_sin_nombre_48-17" x1="0" y1="316.82" x2="1352.79" y2="316.82" xlink:href="#Degradado_sin_nombre_48"/><linearGradient id="Degradado_sin_nombre_48-18" x1="0" y1="316.4" x2="1352.6" y2="316.4" xlink:href="#Degradado_sin_nombre_48"/><linearGradient id="Degradado_sin_nombre_48-19" x1="0" y1="316" x2="1352.4" y2="316" xlink:href="#Degradado_sin_nombre_48"/><linearGradient id="Degradado_sin_nombre_48-20" x1="0" y1="315.61" x2="1352.2" y2="315.61" xlink:href="#Degradado_sin_nombre_48"/><linearGradient id="Degradado_sin_nombre_48-21" x1="0" y1="315.24" x2="1352" y2="315.24" xlink:href="#Degradado_sin_nombre_48"/><linearGradient id="Degradado_sin_nombre_48-22" x1="0" y1="315.07" x2="1351.81" y2="315.07" xlink:href="#Degradado_sin_nombre_48"/></defs><g id="Capa_2" data-name="Capa 2"><g id="Capa_1-2" data-name="Capa 1"><path class="cls-1" d="M.5,330.71s14.11,36.9,91.17,40.16,64-90.08,206.21-81.4,143.26,125.9,252.88,125.9S678.83,235.2,765.65,235.2c95.51,0,114,180.17,188.85,180.17,133.71,0,157.59-172.13,257.22-158.46,55.35,7.6,70.55,158.46,144.35,132.41"/><path class="cls-2" d="M.5,323s13.58,32.86,88.69,31a101.67,101.67,0,0,0,26-3.66c50-14.48,57.6-76,177.47-61C400.33,302.83,425.82,381.15,481,411.48c16,8.75,28.29,14,56.52,14C647.09,425.44,664.2,224,752.63,224c68.74,0,97.11,112.4,136.63,162.84,17.49,22.31,35,32.73,58,27.75,47.35-10.24,81.47-40.4,112.42-67.93,53.29-47.38,84-88.94,147.08-73.08a76.83,76.83,0,0,1,13.24,5c49.49,22.71,66.44,114.4,135.87,92.23"/><path class="cls-3" d="M.5,315.31s13.08,24.79,86.22,21.85a118.26,118.26,0,0,0,26.41-4.29c49.24-13.23,58.73-66.05,174.29-43.66,104.63,20.26,130.32,104.28,183.09,133,15.74,8.58,21.38,13.27,53.68,13.27,109.62,0,125.38-222.64,215.41-222.64,71.33,0,98.88,138.37,141.37,186.11,18.72,21,35.76,25.1,59,14.91,45.41-19.89,79.94-57.89,113.33-84.49,56.81-45.28,85.72-61.38,148.45-39.07,4.92,1.75,9.61,4,14.38,5.78,52.9,19.95,68.76,76.5,139.49,56.19"/><path class="cls-4" d="M.5,307.61s12.66,18.57,83.74,12.69a166.32,166.32,0,0,0,26.85-4.91c48.45-12,59.94-56,171.1-26.31C383.85,316.2,409.71,405.75,460.05,433c15.47,8.39,14.49,12.57,50.86,12.57,109.62,0,124-243.89,215.67-243.89,73.91,0,100.61,164.34,146.09,209.4,20,19.76,36.44,17.77,60.08,2.05,43.38-28.83,78.4-75.38,114.24-101.05,60.29-43.18,87.45-33.23,149.83-5.06,5.27,2.38,10.25,5,15.51,6.6,56.19,17.32,71.08,38.6,143.12,20.16"/><path class="cls-5" d="M.5,299.91s12.29,12.24,81.27,3.54c9.76-1.24,18.67-3.57,27.27-5.54C156.69,287,170.27,252.14,277,289,375.73,323,401.69,418,449.59,443.81c15.2,8.19,7.6,11.87,48,11.87,109.62,0,122.69-265.13,215.93-265.13,76.49,0,102.32,190.3,150.81,232.67,21.17,18.5,37.19,10.7,61.13-10.79,41.52-37.28,76.83-92.9,115.14-117.62,63.74-41.12,89.12-4.63,151.21,29,5.62,3,10.89,6,16.64,7.41,59.43,14.8,73.41.7,146.75-15.87"/><path class="cls-6" d="M.5,292.21s12,5.79,78.79-5.62c9.78-1.67,18.8-4.28,27.71-6.16,46.81-9.85,62.56-35.44,164.74,8.38C367.67,330,393.67,430.24,439.14,454.58c14.92,8,.7,11.18,45.21,11.18,109.61,0,121.35-286.37,216.18-286.37,79.09,0,104,216.28,155.55,256,22.37,17.23,38.08,3.79,62.17-23.65,39.9-45.43,75.24-110.42,116-134.17,67.14-39.09,90.67,24.27,152.58,63,6,3.73,11.53,7,17.78,8.23,62.61,12.39,75.73-37.2,150.37-51.9"/><path class="cls-7" d="M.5,284.51s11.64-.8,76.32-14.77c9.79-2.12,18.91-5,28.14-6.79,46-8.84,63.9-24.95,161.55,25.73C359.63,337,385.65,442.47,428.68,465.36c14.66,7.8-6.19,10.47,42.38,10.47,109.62,0,120-307.61,216.45-307.61,81.67,0,105.68,242.27,160.27,279.23,23.58,16,39.13-3,63.23-36.5,38.52-53.48,73.62-128,116.94-150.73,70.53-37.08,92.09,53.41,154,97,6.3,4.44,12.17,8,18.92,9.05,65.77,10.06,78.05-75.1,154-87.93"/><path class="cls-8" d="M.5,276.81s11.35-7.51,73.84-23.93c9.82-2.58,19-5.74,28.57-7.4,45.1-7.88,65.24-14.33,158.37,43.07,90.31,55.67,116.36,166.15,156.94,187.58,14.39,7.61-13.08,9.78,39.56,9.78,109.62,0,118.66-328.85,216.71-328.85,84.25,0,107.33,268.27,165,302.51,24.77,14.71,40.31-9.85,64.28-49.35,37.32-61.51,72-145.52,117.85-167.3,73.89-35.1,93.38,82.7,155.33,131,6.62,5.16,12.81,9,20.06,9.85,68.92,7.81,80.37-113,157.62-124"/><path class="cls-9" d="M.5,269.11S11.55,254.77,71.87,236c9.84-3.06,19.14-6.47,29-8,44.22-7,66.53-3.55,155.18,60.42,87.47,63.12,113.59,178.5,151.72,198.49,14.11,7.4-20,9.08,36.73,9.08,109.62,0,117.32-350.09,217-350.09,86.85,0,109,294.28,169.73,325.78,25.95,13.46,41.57-16.65,65.32-62.2,36.26-69.56,70.38-163.09,118.76-183.85,77.24-33.15,94.56,112.07,156.71,165,6.92,5.9,13.43,10.07,21.18,10.67,72.08,5.6,82.7-150.89,161.25-160"/><path class="cls-10" d="M.5,261.41s10.74-21.29,68.89-42.24c9.87-3.56,19.26-7.22,29.44-8.65,43.33-6.09,67.75,7.34,152,77.77,84.55,70.69,110.8,190.84,146.48,209.4,13.85,7.2-26.88,8.38,33.91,8.38,109.62,0,116-371.34,217.22-371.34,89.43,0,110.61,320.32,174.45,349.07C850,496,865.81,460.33,889.26,408.75c35.3-77.65,68.75-180.69,119.66-200.42,80.58-31.22,95.65,141.52,158.09,199,7.21,6.65,14.07,11.12,22.32,11.49,75.23,3.45,85-188.79,164.88-196"/><path class="cls-11" d="M.5,253.71s10.4-28.36,66.42-51.4c9.89-4.07,19.36-8,29.86-9.27,42.44-5.26,68.9,18.33,148.82,95.12,81.56,78.36,108,203.17,141.25,220.3,13.58,7-33.77,7.69,31.09,7.69,109.61,0,114.63-392.58,217.47-392.58,92,0,112.24,346.37,179.18,372.34,28.32,11,44.32-30.3,67.42-87.9,34.4-85.77,67.12-198.3,120.57-217,83.91-29.32,96.63,171,159.46,233,7.49,7.4,14.73,11.65,23.46,12.3,78.19,5.85,87.34-226.69,168.5-232"/><path class="cls-12" d="M.5,246s10-35.51,63.94-60.54c9.91-4.6,19.47-8.74,30.3-9.9C136.28,171.1,164.68,205,240.37,288c78.46,86.11,105.27,215.49,136,231.21,13.31,6.81-40.67,7,28.25,7,109.62,0,113.29-413.81,217.74-413.81,94.6,0,113.85,372.44,183.9,395.62,29.51,9.76,45.76-37.15,68.47-100.75,33.55-93.94,65.48-215.93,121.47-233.54,87.25-27.45,97.55,200.5,160.84,267,7.76,8.16,15.36,12.72,24.6,13.12,81.5,3.53,89.65-264.59,172.12-268.08"/><path class="cls-13" d="M.5,238.3S10.11,195.53,62,168.6c9.91-5.14,19.58-9.5,30.73-10.52,40.63-3.69,70.89,40.52,142.44,129.82C310.4,381.82,337.66,515.7,365.94,530c13.05,6.6-47.56,6.28,25.43,6.28,109.62,0,111.94-435.06,218-435.06,97.19,0,115.47,398.53,188.63,418.9,30.68,8.54,47.21-44,69.51-113.6C900.25,304.4,931.36,173,989.89,156.44c90.58-25.59,98.39,230,162.21,301,8,8.92,16,14.25,25.74,13.93,84.76-2.8,92-302.49,175.75-304.12"/><path class="cls-14" d="M.5,230.6s9.13-50.1,59-78.85C69.4,146,79.18,141.46,90.65,140.6c39.74-3,71.74,51.65,139.26,147.17,71.94,101.76,99.77,240.1,125.57,253,12.78,6.4-54.45,5.59,22.61,5.59,109.62,0,110.6-456.3,218.25-456.3,99.78,0,117.09,424.63,193.36,442.18,31.86,7.33,48.69-50.91,70.56-126.45,32-110.37,62.21-251.22,123.28-266.67,93.91-23.75,99.18,259.53,163.59,335.05,8.27,9.69,16.63,15.31,26.87,14.75,88-4.83,94.3-340.4,179.38-340.15"/><path class="cls-15" d="M.5,222.9s8.59-57.5,56.52-88c9.88-6.29,19.79-11.08,31.59-11.77,38.83-2.25,72.49,62.8,136.08,164.52C293.21,397.25,321.7,540,345,551.57c12.51,6.19-61.36,4.89,19.78,4.89,109.61,0,109.25-477.54,218.51-477.54C685.68,78.92,702,529.66,781.4,544.37c33,6.12,50.19-57.8,71.61-139.3C884.19,286.44,913.58,136.2,977.2,121.85c97.24-21.93,99.91,289,165,369,8.5,10.47,17.26,16.38,28,15.57,91.18-6.85,96.62-378.3,183-376.18"/><path class="cls-16" d="M.5,215.2s8-64.95,54-97.16c9.85-6.89,19.9-11.89,32-12.39,37.94-1.59,73.17,73.92,132.9,181.86,65,117.45,94.28,264.66,115.11,274.84,12.26,6-68.25,4.19,16.95,4.19,109.62,0,107.92-498.79,218.77-498.79,105,0,120.35,476.88,202.82,488.74,34.22,4.92,51.69-64.72,72.66-152.15,30.42-126.92,58.93-286.55,125.09-299.79,100.58-20.12,100.59,318.53,166.34,403.07,8.74,11.23,17.91,17.43,29.14,16.38,94.4-8.84,98.94-416.2,186.63-412.21"/><path class="cls-17" d="M.5,207.5s7.29-72.43,51.57-106.32c9.79-7.49,20.06-11.84,32.45-13,36.89-3.49,73.76,85,129.71,199.2,61.4,125.3,91.55,276.94,109.88,285.75,12,5.77-75.14,3.49,14.13,3.49,109.62,0,106.57-520,219-520,107.54,0,122,503,207.54,512,35.41,3.72,53.21-71.63,73.71-165,29.68-135.21,57.3-304.23,126-316.34,103.92-18.33,101.25,348,167.72,437.07,9,12,18.55,18.5,30.28,17.2,97.63-10.83,101.26-454.1,190.25-448.25"/><path class="cls-18" d="M.5,199.8S7,119.87,49.59,84.33c9.72-8.12,20.15-12.79,32.89-13.64,36.07-2.42,74.29,96.1,126.52,216.55,57.72,133.1,88.82,289.18,104.66,296.66,11.74,5.54-82,2.79,11.3,2.79,109.62,0,105.22-541.26,219.29-541.26,110.12,0,123.61,529.16,212.26,535.29,36.6,2.52,54.74-78.57,74.76-177.86C860.21,259.33,886.94,81,958.17,70,1065.43,53.41,1060,447.45,1127.26,541c9.18,12.79,19.2,19.57,31.41,18,100.89-12.8,103.59-492,193.88-484.28"/><path class="cls-19" d="M.5,192.1S6.2,104.66,47.12,67.47c9.62-8.75,20.24-13.77,33.31-14.26,35.26-1.33,74.78,107.14,123.34,233.9,54,140.88,86.11,301.41,99.43,307.57,11.49,5.3-88.93,2.09,8.48,2.09,109.61,0,103.88-562.51,219.54-562.51,112.71,0,125.27,555.33,217,558.57,37.78,1.34,56.26-85.51,75.8-190.7,28.21-151.87,54-339.62,127.8-349.47,110.62-14.77,102.46,407,170.47,505.1,9.4,13.56,19.85,20.63,32.55,18.83C1259,561.82,1260.75,46.69,1352.35,56.28"/><path class="cls-20" d="M.5,184.4S5.29,89.45,44.64,50.61C54.15,41.23,65,35.38,78.39,35.73,112.8,36.64,153.6,153.88,198.55,287c50.17,148.62,83.39,313.63,94.19,318.47,11.26,5-95.82,1.4,5.66,1.4C408,606.85,400.93,23.1,518.2,23.1,633.5,23.1,645.11,604.59,739.92,605c39,.14,57.79-92.46,76.85-203.56,27.49-160.21,52.42-357.32,128.71-366,114-13,103,436.41,171.85,539.1,9.6,14.33,20.48,21.7,33.68,19.65,107.4-16.73,108.23-567.8,201.13-556.34"/><path class="cls-21" d="M.5,176.7S4.31,74.26,42.17,33.76c9.37-10,20.46-16.11,34.18-15.51,33.55,1.49,75.62,129.11,117,268.6,46.34,156.32,80.69,325.82,89,329.38,11,4.75-102.73.7,2.82.7,109.62,0,101.2-605,220.06-605,117.89,0,128.58,607.76,226.45,605.12,40.17-1,59.33-99.41,77.9-216.4C836.28,232.09,860.31,25.52,939.14,18.07c117.31-11.41,103.56,465.86,173.22,573.12,9.81,15.1,21.13,22.76,34.82,20.46C1257.85,593,1257.73,6,1351.93,19.28"/><path class="cls-22" d="M.5,169S4.84-3.57,74.3.77,261,622.66,271.83,627s-109.62,0,0,0S371.68.77,492.15.77,622.39,634.6,723.32,629.18,795,11.63,932.79.77s96.6,649,210.55,628.41S1256.22-14.42,1351.73.77"/></g></g></svg>